<svg width="64" height="64" viewBox="0 0 64 64" xmlns="http://www.w3.org/2000/svg" xmlns:xlink="http://www.w3.org/1999/xlink"><defs><path id="a" d="M.008.018h63.974V64H.008z"/></defs><g fill="none" fill-rule="evenodd"><mask id="b" fill="#fff"><use xlink:href="#a"/></mask><path d="M60.317 31.32c0 15.779-12.792 28.57-28.572 28.57S3.174 47.1 3.174 31.32c0-15.78 12.792-28.572 28.571-28.572 15.78 0 28.572 12.792 28.572 28.571" fill="#FFFFFE" mask="url(#b)"/><path d="M31.991 59.834c-15.325 0-27.825-12.5-27.825-27.825s12.5-27.825 27.825-27.825 27.825 12.5 27.825 27.825-12.5 27.825-27.825 27.825zm30.104-23.116c.261-1.648 1.626-3.062 1.887-4.71-.26-1.647-1.644-3.176-1.905-4.824-.261-1.647.6-3.413.34-5.061-.758-1.486-2.546-2.513-3.303-4-.758-1.486-.484-3.432-1.241-4.918-1.18-1.18-3.198-1.604-4.377-2.783-1.18-1.18-1.522-3.115-2.701-4.295-1.486-.757-3.537-.536-5.023-1.294-1.486-.757-2.409-2.492-3.895-3.25-1.648-.26-3.53.582-5.177.322-1.647-.261-3.06-1.626-4.709-1.887-1.648.26-3.177 1.644-4.824 1.905-1.648.26-3.414-.6-5.062-.34-1.486.758-2.513 2.546-4 3.303-1.485.758-3.431.484-4.918 1.241-1.18 1.18-1.603 3.198-2.783 4.377-1.18 1.18-3.115 1.522-4.294 2.701-.758 1.486-.537 3.537-1.295 5.023-.757 1.486-2.492 2.409-3.25 3.895-.26 1.648.583 3.53.322 5.177C1.626 28.948.261 30.36 0 32.009c.261 1.647 1.644 3.176 1.905 4.824.261 1.648-.6 3.414-.34 5.061.758 1.487 2.546 2.514 3.304 4 .757 1.486.483 3.432 1.24 4.919 1.18 1.18 3.198 1.603 4.378 2.783 1.18 1.18 1.52 3.114 2.7 4.294 1.487.758 3.537.537 5.023 1.294 1.486.758 2.41 2.493 3.895 3.25 1.648.261 3.53-.582 5.177-.321 1.648.26 3.061 1.626 4.709 1.887 1.648-.261 3.177-1.645 4.825-1.905 1.647-.261 3.413.6 5.06.34 1.487-.758 2.514-2.546 4-3.304 1.487-.757 3.433-.483 4.92-1.24 1.178-1.18 1.603-3.198 2.782-4.378 1.18-1.18 3.115-1.52 4.295-2.7.757-1.487.537-3.537 1.294-5.024.757-1.486 2.492-2.408 3.25-3.895.26-1.647-.583-3.529-.322-5.176z" fill="#196592" mask="url(#b)"/><path d="M16.995 13.654c.284.373.795.475 1.18.182.386-.294.42-.802.137-1.175l-.005-.006c-.284-.373-.794-.476-1.18-.182-.385.294-.42.802-.136 1.175l.004.006m-6.345 8.581l.313-.656-.956-.054.643.71m9.94-11.485l-.004-.008c-.128-.224-.35-.25-.604-.105l-.52.295.388.683.53-.302c.255-.144.324-.363.21-.564m10.243-3.064l-.321.903.726-.034-.405-.869M14.257 15.48l-.006-.005c-.134-.12-.304-.083-.473.106l-.396.443.43.385.37-.413c.178-.198.226-.38.075-.516m37.746 5.537c.234.425.731.534 1.142.308l.007-.004c.41-.226.587-.716.353-1.14-.234-.424-.731-.534-1.142-.308l-.007.004c-.41.226-.587.716-.353 1.14m-5.059-7.935l.004-.006c.155-.206.092-.42-.143-.597l-.477-.36-.473.628.487.367c.235.176.463.152.602-.032m-3.793-.991c.423.237.903.068 1.133-.341l.004-.007c.23-.41.12-.918-.302-1.155s-.903-.068-1.132.341l-.004.007c-.23.409-.121.918.301 1.155m-8.43-3.616l.001-.008c.041-.483-.261-.85-.752-.891l-.463-.04-.14 1.643.463.04c.49.042.85-.261.891-.744m-19.548 7.621l-.006-.005c-.136-.123-.312-.096-.518.134l-.464.518.449.401.476-.533c.178-.198.215-.38.063-.515" fill="#196592"/><path d="M57.008 33.416l-2.183-.145-.09 1.36-.546-.036.13-1.96 2.729.18-.04.6zm-4.044 11.912c-6.594-.868-13.279-1.362-20.979-1.362h-.018c-4.191-.001-10.939.03-20.963 1.34L8.667 36.61c1.059-.142 2.12-.275 3.185-.398a20.628 20.628 0 01-.432-4.202c0-11.361 9.21-20.572 20.571-20.572s20.572 9.21 20.572 20.572c0 1.448-.152 2.86-.437 4.223 1.066.125 2.129.258 3.19.402l-2.352 8.694zm-10.283 5.8l-1.596 2.293-.056-2.793-2.674-.81 2.64-.916-.057-2.793 1.687 2.227 2.64-.917-1.597 2.292 1.686 2.227-2.673-.81zm-7.816 4.499l-2.87-2.086-2.872 2.086 1.097-3.376-2.871-2.085h3.549l1.096-3.375 1.097 3.375h3.549l-2.871 2.085 1.096 3.376zm-11.904-4.83l-.073 2.792-1.582-2.302-2.678.794 1.7-2.217-1.583-2.302 2.634.933 1.7-2.217-.073 2.793 2.634.932-2.679.793zM8.408 34.607A1.404 1.404 0 016.92 33.25c-.027-.491.09-.795.317-1.093l.477.355c-.165.22-.256.412-.24.728.024.438.429.764.893.74h.008c.5-.027.848-.39.822-.874a.96.96 0 00-.194-.557l-.39.02.032.605-.519.028-.063-1.186 1.186-.063c.253.268.469.644.495 1.143.046.851-.52 1.468-1.328 1.511h-.008zm-1.438-3.95l2.184.14.088-1.361.546.035-.126 1.961-2.73-.175.038-.6zm.337-3.227c.153-.83.881-1.312 1.646-1.17h.007c.765.142 1.28.86 1.127 1.69-.153.83-.88 1.312-1.646 1.171l-.007-.001c-.765-.141-1.28-.86-1.127-1.69zm.929-3.407c.097-.297.255-.504.453-.604a.627.627 0 01.5-.033l.007.002c.294.096.406.306.45.526.213-.263.448-.392.797-.278l.008.003c.475.156.586.62.394 1.206l-.405 1.237-2.6-.852.396-1.207zm1.242-3.067l2.99.13-.271.568-.662-.04-.498 1.044.445.49-.264.553-1.98-2.244.24-.501zm1.2-2.13L12.527 20l.731-1.151.462.293-1.053 1.66-2.31-1.467.323-.508zm2.767-3.664c.208-.232.436-.359.657-.37a.627.627 0 01.472.17l.005.005c.23.206.25.443.2.661.302-.155.569-.178.842.067l.006.005c.373.334.288.803-.124 1.263l-.867.97-2.038-1.824.847-.947zm1.668-1.672l1.867 2-.44.41-1.867-1.999.44-.41zm1.684-1.463c.672-.512 1.534-.378 2.006.24l.004.007c.472.618.37 1.496-.302 2.008-.671.511-1.534.378-2.005-.24l-.005-.007c-.471-.618-.37-1.497.302-2.008zm2.96-1.887c.302-.172.585-.22.83-.153.208.057.385.203.513.427l.004.007c.218.383.148.742-.09 1.026l1.064.519-.612.348-.942-.471-.41.234.432.76-.523.298-1.352-2.377 1.086-.618zm2.135-1.068l1.133 2.49-.547.248-1.133-2.488.547-.25zm1.602-.68a1.584 1.584 0 011.073-.016l-.141.532c-.285-.076-.544-.091-.76-.014-.218.078-.296.218-.251.343l.002.008c.06.169.191.184.677.14.571-.052.932.03 1.093.48l.003.006c.183.512-.104.938-.66 1.137a1.74 1.74 0 01-1.24-.02l.191-.521c.3.108.587.142.881.037.232-.083.339-.225.285-.376l-.003-.007c-.051-.144-.166-.186-.636-.142-.566.053-.952.03-1.135-.481l-.003-.008c-.167-.467.098-.91.624-1.099zm2.367-.687l.268 1.165.813-1.414.708-.164-.824 1.381 1.488 1.273-.704.163-1.088-.944-.235.39.188.815-.586.136-.615-2.666.587-.135zm4.67-.73l.553-.025 1.3 2.696-.629.03-.278-.602-1.155.054-.221.625-.613.028 1.042-2.805zm2.423-.031l1.063.09c.856.073 1.398.712 1.333 1.48l-.001.007c-.066.767-.708 1.312-1.565 1.239l-1.063-.09.233-2.726zm3.54.405l.301 2.032 1.097-1.737.635.134-1.65 2.466-.52-.11-.514-2.922.65.137zm3.215.816l-.81 2.612-.574-.178.81-2.613.574.179zm.975 2.085c-.458-.337-.73-.611-.526-1.115l.002-.007c.186-.46.679-.614 1.197-.405.37.15.637.393.81.703l-.459.303c-.161-.247-.344-.43-.558-.516-.214-.087-.365-.035-.415.089l-.003.007c-.067.166.02.265.412.554.46.342.675.644.496 1.086l-.003.007c-.203.503-.701.63-1.248.41a1.74 1.74 0 01-.911-.841l.489-.262c.152.281.342.497.632.614.228.093.402.058.462-.09l.003-.008c.057-.141 0-.249-.38-.529zm1.617.378c.38-.678 1.227-.933 1.963-.52.736.413.957 1.258.576 1.936l-.004.007c-.38.678-1.227.933-1.963.52-.736-.413-.956-1.258-.576-1.936l.004-.007zm4.871 1.448c.278.209.435.449.47.7.03.214-.033.435-.188.641l-.004.006c-.266.353-.623.432-.979.326l-.053 1.182-.562-.423.058-1.052-.378-.284-.526.7-.481-.362 1.644-2.186 1 .752zm1.142.878l.51.486-.287 1.245 1.238-.336.495.472-1.896.464-.753.788-.435-.415.745-.78.383-1.924zm2.028 4.027a1.39 1.39 0 011.984.31c.306.415.35.765.3 1.118l-.583-.046c.03-.284-.004-.526-.166-.746-.273-.371-.778-.412-1.156-.134l-.006.005c-.377.278-.5.77-.222 1.148.186.251.4.331.684.389l-.084.537c-.409-.048-.745-.188-1.058-.613a1.38 1.38 0 01.301-1.963l.006-.005zm3.653 2.939c.407.74.148 1.573-.533 1.948l-.007.004c-.68.375-1.534.145-1.942-.594-.407-.739-.148-1.573.533-1.948l.007-.004c.68-.375 1.534-.145 1.942.594zm1.185 2.569l-1.444.554c-.416.16-.552.45-.42.793.131.343.419.471.824.316l1.463-.561.215.561-1.44.553c-.774.297-1.32.008-1.583-.678-.263-.685-.041-1.252.71-1.54l1.46-.56.215.562zm1.031 3.052l-1.342 1.637 1.639-.39.137.578-2.66.633-.12-.498 1.386-1.691-1.692.403-.137-.578 2.66-.634.13.54zm.456 5.147l-.478-.335c.168-.23.262-.455.234-.727-.047-.459-.463-.75-.929-.701h-.008c-.466.05-.821.412-.772.879.032.31.176.488.393.682l-.345.42c-.329-.248-.548-.54-.602-1.064a1.38 1.38 0 011.254-1.54l.007-.002a1.39 1.39 0 011.554 1.272c.054.513-.085.838-.308 1.116zm.38 1.27l-2.734.045-.01-.601 2.735-.045.01.602zM31.992 5.063C17.15 5.063 5.045 17.168 5.045 32.01c0 14.842 12.105 26.947 26.947 26.947 14.842 0 26.947-12.105 26.947-26.947 0-14.842-12.105-26.947-26.947-26.947z" fill="#196592"/><path d="M8.54 28.5l.008.001c.46.085.907-.182.995-.659.088-.476-.228-.876-.689-.961l-.008-.002c-.46-.085-.907.183-.995.66-.088.476.228.876.689.96m1.654-4.315l-.008-.003c-.174-.057-.324.038-.42.331l-.217.661.572.188.223-.68c.082-.252.043-.434-.15-.497m-1.087-.196l-.008-.002c-.17-.056-.31.046-.39.287l-.185.565.55.18.173-.528c.082-.252.053-.439-.14-.502m3.379 17.945l.479-.714c.385.241.787.348 1.198.304.27-.029.402-.135.386-.288l-.001-.01c-.016-.152-.141-.216-.641-.28-.776-.093-1.382-.244-1.46-.97v-.011c-.07-.66.402-1.193 1.255-1.284.605-.064 1.094.048 1.513.317l-.419.748c-.35-.199-.717-.278-1.033-.245-.238.026-.345.135-.33.267v.01c.018.162.147.22.657.28.831.09 1.367.301 1.438.967l.001.01c.077.726-.45 1.219-1.314 1.31-.63.068-1.246-.067-1.73-.411m4.158-2.607l-1.063.091-.075-.865 3.12-.268.075.865-1.07.092.233 2.698-.988.085-.232-2.698m4.253.973l-.464-.983-.337 1.035.8-.052zm-1.01-2.125l.953-.063 1.755 3.495-1.06.07-.297-.626-1.382.09-.213.66-1.035.067 1.279-3.693zm4.607 1.492c.332-.014.524-.185.513-.446v-.01c-.012-.286-.228-.42-.554-.406l-.654.028.037.862.658-.028zm-1.72-1.645l1.689-.071c.546-.023.93.104 1.18.333.218.2.336.467.351.819v.01c.024.551-.252.926-.688 1.134l.905 1.21-1.138.047-.766-1.052-.439.02.046 1.081-.99.042-.15-3.573zm5.16-.185l2.861-.041.013.868-1.87.027.009.608 1.69-.024.013.822-1.691.024.018 1.278-.99.014-.053-3.576m5.052 2.125l-.394-1.013-.408 1.01.802.003zm-.86-2.19l.956.004 1.508 3.608-1.063-.005-.253-.644-1.384-.006-.258.643-1.037-.004 1.532-3.596zm2.491 1.837v-.01c.026-1.042.842-1.84 1.925-1.814.73.017 1.193.335 1.5.777l-.76.56c-.199-.256-.43-.43-.772-.439-.5-.012-.863.409-.876.93v.01c-.013.537.33.964.83.976.373.01.597-.16.818-.415l.733.55c-.349.456-.811.788-1.598.769a1.816 1.816 0 01-1.8-1.894m3.964-1.689l.99.04-.143 3.572-.99-.039.142-3.573m1.681.065l.99.054-.148 2.704 1.73.094-.047.867-2.72-.147.194-3.572m3.214.186l.989.068-.246 3.567-.988-.068.245-3.567m2.481 1.052l-1.064-.09.073-.865 3.121.264-.073.865-1.07-.09-.228 2.699-.988-.084.229-2.699m3.416 1.693l-1.119-2.37 1.123.12.593 1.373.875-1.217 1.102.118-1.587 2.065-.143 1.346-.986-.105.142-1.33M35.078 27.983a1.174 1.174 0 00.716 1.28.802.802 0 00.144-.303.839.839 0 01-.526-.942.798.798 0 00-.334-.035m1.455.977c.026.11.075.213.145.303a1.174 1.174 0 00.716-1.28.796.796 0 00-.335.036.84.84 0 01-.526.94" fill="#196592"/><path d="M36.868 29.537a.876.876 0 01-.393-1.049c.008-.024.02-.047.03-.07l-.1-.058a.25.25 0 01-.17.067.25.25 0 01-.169-.067l-.1.058c.01.023.022.046.03.07a.88.88 0 01-1.467.898l-.043.025a1.258 1.258 0 001.75.182 1.258 1.258 0 001.75-.182l-.044-.025a.88.88 0 01-1.074.151m-7.866-3.008v-.023c0-.356-.287-.55-.86-.55h-1.159v1.123h1.17c.573 0 .849-.195.849-.55m8.491.725c0-.623-.452-1.14-1.046-1.24v.05a.88.88 0 01-.044 1.719.904.904 0 01-.091.01v.144a.251.251 0 01.17.291l.097.057a.881.881 0 011.574.734l.044.025a1.258 1.258 0 00-.717-1.606c.009-.06.013-.122.013-.184" fill="#196592"/><path d="M35.714 27.52a.834.834 0 011.044 0 .796.796 0 00.201-.268 1.168 1.168 0 00-1.447 0 .8.8 0 00.202.268m-7.377 1.21h-1.354v1.194h1.342c.585 0 .883-.241.883-.585v-.023c0-.344-.287-.585-.871-.585" fill="#196592"/><path d="M34.723 28.013a.88.88 0 011.169.272l.098-.057a.25.25 0 01.17-.291v-.143c-.031-.003-.062-.006-.092-.011a.88.88 0 01-.044-1.72v-.05a1.258 1.258 0 00-1.032 1.425 1.258 1.258 0 00-.717 1.606l.043-.025a.88.88 0 01.405-1.006" fill="#196592"/><path d="M48.114 24.6a.34.34 0 01-.348-.354c0-.213.161-.354.348-.354.186 0 .347.14.347.354a.343.343 0 01-.347.353zm-3.877 7.526c-2.225 0-4.164-1.675-4.164-4.164v-.023c0-2.397 1.87-4.186 4.267-4.186 1.766 0 2.96.86 3.636 2.088l-2.214 1.296c-.298-.574-.722-.975-1.456-.975-.907 0-1.503.791-1.503 1.755v.022c0 1.044.62 1.778 1.503 1.778.757 0 1.181-.413 1.514-1.009l2.213 1.25c-.676 1.193-1.8 2.168-3.796 2.168zm-6.2-.172l-.425-1.078h-2.81l-.413 1.078h-2.868l3.384-8.086h2.661l3.384 8.086h-2.914zm-9.219 0h-4.45v-8.029h4.496c1.113 0 1.812.252 2.283.723.286.286.493.7.493 1.25v.023c0 .952-.574 1.537-1.434 1.835 1.032.298 1.698.849 1.698 1.95v.023c0 1.285-1.056 2.225-3.086 2.225zm-4.975-1.032c-.872.71-2.088 1.204-3.545 1.204-2.5 0-4.507-1.675-4.507-4.164v-.023c0-2.397 1.892-4.186 4.427-4.186 1.376 0 2.489.459 3.36 1.216l-1.502 1.812c-.527-.447-1.112-.7-1.778-.7-1.043 0-1.8.803-1.8 1.893v.023c0 1.135.791 1.915 1.915 1.915.459 0 .711-.069.918-.183v-.803h-1.377v-1.72h3.889v3.716zm8.148-19.074c-11.134 0-20.16 9.026-20.16 20.16 0 1.426.15 2.815.43 4.156 6.221-.708 12.6-1.088 19.729-1.09 7.125.006 13.505.396 19.726 1.11.284-1.347.436-2.743.436-4.175 0-11.135-9.026-20.16-20.16-20.16z" fill="#196592"/><path d="M48.207 24.164c0-.047-.046-.053-.085-.053h-.078v.115h.072c.048 0 .091-.005.091-.062" fill="#196592"/><path d="M48.512 24.8l-.186-.287h-.111v.287h-.119v-.67h.274c.174 0 .263.056.263.192 0 .122-.08.172-.188.183l.202.295h-.135zm-.169-.847a.487.487 0 00-.501.5c0 .275.192.5.501.5a.485.485 0 00.499-.5c0-.294-.22-.5-.499-.5z" fill="#196592"/></g></svg>